<?xml version="1.0" standalone="no"?>
<!DOCTYPE svg PUBLIC "-//W3C//DTD SVG 20010904//EN"
 "http://www.w3.org/TR/2001/REC-SVG-20010904/DTD/svg10.dtd">
<svg version="1.0" xmlns="http://www.w3.org/2000/svg"
 width="512.000000pt" height="512.000000pt" viewBox="0 0 512.000000 512.000000"
 preserveAspectRatio="xMidYMid meet">
<metadata>
Created by potrace 1.11, written by Peter Selinger 2001-2013
</metadata>
<g transform="translate(0.000000,512.000000) scale(0.100000,-0.100000)"
fill="#000000" stroke="none">
<path d="M555 4000 c-182 -5 -202 -11 -226 -59 -17 -34 -21 -2665 -4 -2732 8
-33 18 -48 44 -63 32 -18 54 -19 400 -19 398 0 397 0 431 56 19 30 20 53 20
390 l0 357 253 1 c360 1 475 9 622 45 104 26 212 72 256 110 8 8 19 14 22 14
4 0 7 -198 7 -441 0 -488 1 -494 63 -520 23 -10 117 -13 379 -13 333 1 350 1
376 21 53 39 55 53 56 378 l1 300 353 3 352 2 0 -300 c0 -165 0 -302 0 -305
-1 -20 36 -68 63 -81 28 -15 75 -17 395 -17 349 -1 363 0 390 19 56 42 55 29
54 650 0 315 -3 601 -7 636 -8 75 -54 262 -91 373 -15 44 -83 226 -151 405
-68 179 -157 410 -196 514 -79 207 -106 247 -178 266 -52 14 -1188 14 -1238 0
-76 -22 -88 -41 -186 -295 -42 -110 -87 -227 -100 -260 -13 -33 -36 -93 -51
-132 -15 -40 -30 -73 -34 -73 -3 0 -7 19 -8 43 -7 133 -41 269 -93 364 -132
245 -350 347 -764 360 -242 7 -1009 9 -1210 3z m1122 -763 c17 -9 42 -33 55
-54 21 -35 23 -51 26 -203 3 -102 0 -182 -7 -207 -15 -55 -51 -97 -95 -110
-20 -6 -125 -11 -239 -12 l-204 -1 0 292 c-1 161 0 298 2 303 2 7 75 10 216
10 177 -2 219 -5 246 -18z m2029 -32 c21 -23 36 -65 131 -375 19 -63 46 -149
59 -190 13 -41 24 -77 24 -80 0 -3 -139 -5 -310 -5 -269 0 -310 2 -310 15 0 8
12 51 26 95 14 44 27 85 28 90 4 17 56 182 99 315 23 72 48 132 60 143 15 13
38 17 95 17 67 0 77 -3 98 -25z"/>
</g>
</svg>
